<?xml version="1.0" encoding="UTF-8" standalone="no"?>
<!-- Created with Inkscape (http://www.inkscape.org/) -->

<svg
   width="30.2078mm"
   height="34.374645mm"
   viewBox="0 0 30.2078 34.374645"
   version="1.1"
   id="svg1"
   xmlns:xlink="http://www.w3.org/1999/xlink"
   xmlns="http://www.w3.org/2000/svg"
   xmlns:svg="http://www.w3.org/2000/svg">
  <defs
     id="defs1">
    <linearGradient
       id="linearGradient22">
      <stop
         style="stop-color:#6aaeed;stop-opacity:1;"
         offset="0"
         id="stop22" />
      <stop
         style="stop-color:#9cd6ff;stop-opacity:1;"
         offset="1"
         id="stop23" />
    </linearGradient>
    <linearGradient
       xlink:href="#linearGradient22"
       id="linearGradient44"
       gradientUnits="userSpaceOnUse"
       x1="-11.374146"
       y1="264.09927"
       x2="354.37109"
       y2="264.09927" />
  </defs>
  <g
     id="layer1"
     transform="translate(-11.929288,-193.51916)">
    <g
       id="g158"
       transform="translate(-7.5640531,-126.31141)">
      <g
         id="g45">
        <g
           style="display:inline;fill:none"
           id="g27"
           transform="matrix(0.08259246,0,0,0.08259246,20.43276,315.20529)">
          <g
             id="g26">
            <path
               id="path26"
               style="display:inline;fill:url(#linearGradient44);stroke-width:0.836662"
               d="m 232.95583,56.00129 c -15.45591,0 -10.32721,23.277194 1.82073,28.274469 l 4.1858,1.726876 c 0.30599,19.224295 0.55296,34.788725 0.79461,49.991815 -0.58835,-0.4995 -1.16761,-0.99361 -1.75816,-1.49538 -16.89833,-14.35791 -34.85461,-29.61331 -55.75432,-47.370211 -3.04877,-2.590489 -6.89465,-3.885472 -10.74292,-3.885472 -3.84831,0 -7.70044,1.294983 -10.74918,3.885472 L -6.0913838,228.88913 c -9.6107392,8.16576 -5.2294562,22.33838 6.07535068,25.46516 l -0.76958613,126.40609 -0.23775835,39.70564 -0.2127311,34.6126 c -2.857e-4,0.0406 -0.012514,0.0782 -0.012514,0.11888 0,0.0365 0.012284,0.07 0.012514,0.10637 l -0.012514,1.73939 c -0.0098,1.61042 0.45101684,3.13943 1.27012997,4.54243 2.52702453,6.21898 8.60318743,10.61153 15.72958973,10.61153 H 324.74931 c 9.38898,0 16.99972,-7.61075 16.99972,-16.99972 l 0.80713,-152.02767 0.26279,-48.77174 c 11.44805,-3.01645 15.9352,-17.29635 6.26931,-25.50896 -11.88586,-10.09882 -19.5858,-16.63909 -29.91375,-25.41512 l 1.86452,-117.471375 4.1858,-1.726876 c 12.14795,-4.997275 16.27664,-28.274469 1.82073,-28.274469 h -30.04514 -25.00217 z" />
          </g>
        </g>
        <g
           id="g41"
           transform="matrix(0.15273241,0,0,0.15273241,22.973104,272.43993)"
           style="display:inline">
          <g
             id="g44"
             transform="matrix(1.4203694,0,0,1.4203694,-34.951505,-170.05248)">
            <path
               d="m 53.335763,93.250122 -0.117306,20.345008 h -0.0052 z m 0,0 c -9.079254,-1.01e-4 -16.43947,7.047308 -16.439307,15.740638 v 47.22089 h 16.439307 v -41.71321 c 2.409884,-2.16811 4.913836,-2.56084 7.574214,0 v 41.71321 h 16.439307 v -41.71321 c 2.409884,-2.16811 4.913835,-2.56084 7.574215,0 v 44.50839 23.37997 c -1.07e-4,9.07899 7.359793,16.43913 16.438791,16.43931 v -21.24832 -9.62955 a 3.5169334,3.5169334 135 0 1 3.51693,-3.51693 h 5.04906 a 3.7712446,3.7712446 45 0 1 3.77124,3.77124 v 29.75333 0.59789 h 16.43879 v -0.59789 -53.85253 -4.57078 c 1.1e-4,-10.75528 -7.3598,-19.47456 -16.43879,-19.47478 v 5.89525 l 0,4.53817 0,13.73007 c 0,2.0828 -1.6135,4.28645 -3.6554,4.69359 -1.34707,0.26859 -3.60375,0.26934 -4.97035,2.3e-4 -2.07241,-0.4081 -3.71148,-2.74583 -3.71148,-4.99492 l 0,-10.85078 v -23.37997 c 1e-4,-9.07901 -7.35978,-16.439128 -16.438791,-16.439308 H 77.349284 60.909977 Z"
               style="display:inline;fill:#f9f9f9;stroke-width:0.258899"
               id="path27"
               transform="translate(1.3167608,287.73279)" />
            <path
               d="m 60.653708,442.65046 v 1.62885 a 1.0583333,1.0583333 0 0 0 1.058333,1.05833 h 17.468701 a 1.0583333,1.0583333 0 0 0 1.058333,-1.05833 v -1.62885 a 1.0583333,1.0583333 0 0 0 -1.058333,-1.05833 H 61.712041 a 1.0583333,1.0583333 0 0 0 -1.058333,1.05833 z"
               style="display:inline;mix-blend-mode:normal;fill:#f9f9f9;stroke:#555555;stroke-width:0.199382;stroke-opacity:0"
               id="path28" />
            <path
               d="m 36.640446,442.65046 v 1.62885 a 1.0583333,1.0583333 0 0 0 1.058333,1.05833 H 55.16748 a 1.0583333,1.0583333 0 0 0 1.058333,-1.05833 v -1.62885 A 1.0583333,1.0583333 0 0 0 55.16748,441.59213 H 37.698779 a 1.0583333,1.0583333 0 0 0 -1.058333,1.05833 z"
               style="display:inline;mix-blend-mode:normal;fill:#f9f9f9;stroke:#555555;stroke-width:0.199382;stroke-opacity:0"
               id="path29" />
            <path
               d="m 113.44273,484.87372 v 1.62937 a 1.0583333,1.0583333 0 0 0 1.05833,1.05833 h 17.46871 a 1.0583333,1.0583333 0 0 0 1.05833,-1.05833 v -1.62937 a 1.0583333,1.0583333 0 0 0 -1.05833,-1.05833 h -17.46871 a 1.0583333,1.0583333 0 0 0 -1.05833,1.05833 z"
               style="display:inline;mix-blend-mode:normal;fill:#f9f9f9;stroke:#555555;stroke-width:0.199382;stroke-opacity:0"
               id="path30" />
            <path
               d="m 99.716841,468.85308 v 17.4604 a 1.1666523,1.0577982 0 0 0 1.166649,1.05779 h 1.79556 a 1.1666523,1.0577982 0 0 0 1.16665,-1.05779 v -17.4604 a 1.1666523,1.0577982 0 0 0 -1.16665,-1.05779 h -1.79556 a 1.1666523,1.0577982 0 0 0 -1.166649,1.05779 z"
               style="display:inline;mix-blend-mode:normal;fill:#f9f9f9;stroke:#555555;stroke-width:0.209284;stroke-opacity:0"
               id="path31" />
            <path
               d="m 113.71939,407.87709 v 8.7302 8.7302 c 10e-6,0.5842 0.52233,1.05779 1.16665,1.05779 h 1.79556 c 0.64432,0 1.16665,-0.47359 1.16665,-1.05779 v -17.4604 c 0,-0.5842 -0.52233,-1.05779 -1.16665,-1.05779 h -1.79556 c -0.64432,0 -1.16664,0.47359 -1.16665,1.05779 z"
               style="display:inline;mix-blend-mode:normal;fill:#f9f9f9;stroke:#555555;stroke-width:0.209284;stroke-opacity:0"
               id="path32" />
          </g>
          <path
             d="m 114.47574,457.17826 v 1.62885 a 1.0583333,1.0583333 0 0 0 1.05833,1.05833 h 15.40269 a 1.0583333,1.0583333 0 0 0 1.05833,-1.05833 v -1.62885 a 1.0583333,1.0583333 0 0 0 -1.05833,-1.05833 h -15.40269 a 1.0583333,1.0583333 0 0 0 -1.05833,1.05833 z"
             style="display:none;mix-blend-mode:normal;fill:#f9f9f9;stroke:#555555;stroke-width:0.188572;stroke-opacity:0"
             id="path33" />
          <path
             d="m 85.700241,457.17826 v 1.62885 a 1.0583333,1.0583333 0 0 0 1.058333,1.05833 h 15.402166 a 1.0583333,1.0583333 0 0 0 1.05833,-1.05833 v -1.62885 a 1.0583333,1.0583333 0 0 0 -1.05833,-1.05833 H 86.758574 a 1.0583333,1.0583333 0 0 0 -1.058333,1.05833 z"
             style="display:none;mix-blend-mode:normal;fill:#f9f9f9;stroke:#555555;stroke-width:0.188572;stroke-opacity:0"
             id="path34" />
          <path
             d="m 61.686719,420.20945 v 1.62885 a 1.0583333,1.0583333 0 0 0 1.058333,1.05833 h 15.402679 a 1.0583333,1.0583333 0 0 0 1.058333,-1.05833 v -1.62885 a 1.0583333,1.0583333 0 0 0 -1.058333,-1.05833 H 62.745052 a 1.0583333,1.0583333 0 0 0 -1.058333,1.05833 z"
             style="display:none;mix-blend-mode:normal;fill:#f9f9f9;stroke:#555555;stroke-width:0.188572;stroke-opacity:0"
             id="path35" />
          <path
             d="m 85.700241,404.72358 v 1.62885 a 1.0583333,1.0583333 0 0 0 1.058333,1.05833 h 15.402166 a 1.0583333,1.0583333 0 0 0 1.05833,-1.05833 v -1.62885 a 1.0583333,1.0583333 0 0 0 -1.05833,-1.05833 H 86.758574 a 1.0583333,1.0583333 0 0 0 -1.058333,1.05833 z"
             style="display:none;mix-blend-mode:normal;fill:#f9f9f9;stroke:#555555;stroke-width:0.188572;stroke-opacity:0"
             id="path36" />
          <path
             d="m 37.673715,404.72358 v 1.62885 a 1.0583333,1.0583333 0 0 0 1.058333,1.05833 h 15.402161 a 1.0583333,1.0583333 0 0 0 1.058333,-1.05833 v -1.62885 a 1.0583333,1.0583333 0 0 0 -1.058333,-1.05833 H 38.732048 a 1.0583333,1.0583333 0 0 0 -1.058333,1.05833 z"
             style="display:none;mix-blend-mode:normal;fill:#f9f9f9;stroke:#555555;stroke-width:0.188572;stroke-opacity:0"
             id="path37" />
          <path
             d="m 80.58014,382.33632 v 17.12092 a 1.5875,1.5875 0 0 0 1.5875,1.5875 h 0.571024 a 1.5875,1.5875 0 0 0 1.5875,-1.5875 v -17.12092 a 1.5875,1.5875 0 0 0 -1.5875,-1.5875 H 82.16764 a 1.5875,1.5875 0 0 0 -1.5875,1.5875 z"
             style="display:none;mix-blend-mode:normal;fill:#f9f9f9;stroke:#555555;stroke-width:0.202967;stroke-opacity:0"
             id="path38" />
          <path
             d="m 56.284465,381.80715 v 18.17926 a 1.0583333,1.0583333 0 0 0 1.058333,1.05833 h 1.628842 a 1.0583333,1.0583333 0 0 0 1.058333,-1.05833 v -18.17926 a 1.0583333,1.0583333 0 0 0 -1.058333,-1.05833 h -1.628842 a 1.0583333,1.0583333 0 0 0 -1.058333,1.05833 z"
             style="display:none;mix-blend-mode:normal;fill:#f9f9f9;stroke:#555555;stroke-width:0.202967;stroke-opacity:0"
             id="path39" />
          <path
             d="m 85.700241,419.98776 v 1.62885 a 1.0583333,1.0583333 0 0 0 1.058333,1.05833 h 2.925543 12.476623 a 1.0583333,1.0583333 0 0 0 1.05833,-1.05833 v -1.62885 a 1.0583333,1.0583333 0 0 0 -1.05833,-1.05833 H 86.758574 a 1.0583333,1.0583333 0 0 0 -1.058333,1.05833 z"
             style="display:none;mix-blend-mode:normal;fill:#f9f9f9;stroke:#555555;stroke-width:0.188572;stroke-opacity:0"
             id="path40" />
          <path
             d="m 114.47574,433.03813 v 1.62885 a 1.0583333,1.0583333 0 0 0 1.05833,1.05833 h 15.40269 a 1.0583333,1.0583333 0 0 0 1.05833,-1.05833 v -1.62885 a 1.0583333,1.0583333 0 0 0 -1.05833,-1.05833 h -15.40269 a 1.0583333,1.0583333 0 0 0 -1.05833,1.05833 z"
             style="display:none;mix-blend-mode:normal;fill:#f9f9f9;stroke:#555555;stroke-width:0.188572;stroke-opacity:0"
             id="path41" />
        </g>
      </g>
    </g>
  </g>
</svg>
