<?xml version="1.0" encoding="UTF-8" standalone="no"?>
<!-- Created with Inkscape (http://www.inkscape.org/) -->

<svg
   width="141.73978mm"
   height="44.770679mm"
   viewBox="0 0 141.73978 44.770679"
   version="1.1"
   id="svg1"
   xmlns:xlink="http://www.w3.org/1999/xlink"
   xmlns="http://www.w3.org/2000/svg"
   xmlns:svg="http://www.w3.org/2000/svg">
  <defs
     id="defs1">
    <linearGradient
       id="linearGradient40">
      <stop
         style="stop-color:#6aaeed;stop-opacity:1;"
         offset="0"
         id="stop40" />
      <stop
         style="stop-color:#aad4f2;stop-opacity:1;"
         offset="1"
         id="stop41" />
    </linearGradient>
    <linearGradient
       id="linearGradient22">
      <stop
         style="stop-color:#6aaeed;stop-opacity:1;"
         offset="0"
         id="stop22" />
      <stop
         style="stop-color:#9cd6ff;stop-opacity:1;"
         offset="1"
         id="stop23" />
    </linearGradient>
    <linearGradient
       xlink:href="#linearGradient40"
       id="linearGradient159"
       gradientUnits="userSpaceOnUse"
       x1="412.83496"
       y1="260"
       x2="432.83786"
       y2="260" />
    <linearGradient
       xlink:href="#linearGradient22"
       id="linearGradient160"
       gradientUnits="userSpaceOnUse"
       x1="-11.374146"
       y1="264.09927"
       x2="354.37109"
       y2="264.09927" />
    <filter
       style="color-interpolation-filters:sRGB"
       id="filter192"
       x="-0.0051435091"
       y="-0.016732252"
       width="1.0125554"
       height="1.0404363">
      <feFlood
         result="flood"
         in="SourceGraphic"
         flood-opacity="0.200000"
         flood-color="rgb(0,0,0)"
         id="feFlood191" />
      <feGaussianBlur
         result="blur"
         in="SourceGraphic"
         stdDeviation="0.300000"
         id="feGaussianBlur191" />
      <feOffset
         result="offset"
         in="blur"
         dx="0.300000"
         dy="0.300000"
         id="feOffset191" />
      <feComposite
         result="comp1"
         operator="in"
         in="flood"
         in2="offset"
         id="feComposite191" />
      <feComposite
         result="comp2"
         operator="over"
         in="SourceGraphic"
         in2="comp1"
         id="feComposite192" />
    </filter>
  </defs>
  <g
     id="layer1"
     transform="translate(-8.9271319,-126.37877)">
    <g
       id="g158"
       transform="translate(-7.5640531,-128.37794)"
       style="filter:url(#filter192)">
      <g
         id="g141">
        <text
           xml:space="preserve"
           style="font-style:normal;font-variant:normal;font-weight:normal;font-stretch:normal;font-size:15.1777px;line-height:0;font-family:Impact;-inkscape-font-specification:'Impact, Normal';font-variant-ligatures:normal;font-variant-caps:normal;font-variant-numeric:normal;font-variant-east-asian:normal;direction:rtl;fill:#6aaeed;fill-opacity:1;stroke:#6aaeed;stroke-width:0.0411729;stroke-dasharray:none"
           x="107.75472"
           y="285.61884"
           id="text139"
           transform="scale(1.0643158,0.93957075)"><tspan
             id="tspan139"
             x="107.75472"
             y="285.61884"
             style="font-style:normal;font-variant:normal;font-weight:normal;font-stretch:normal;font-size:15.1777px;font-family:Impact;-inkscape-font-specification:'Impact, Normal';font-variant-ligatures:normal;font-variant-caps:normal;font-variant-numeric:normal;font-variant-east-asian:normal;fill:#6aaeed;stroke:#6aaeed;stroke-width:0.0411729">M. Heller</tspan></text>
        <text
           xml:space="preserve"
           style="font-style:normal;font-variant:normal;font-weight:normal;font-stretch:normal;font-size:12.9245px;line-height:0;font-family:Impact;-inkscape-font-specification:'Impact, Normal';font-variant-ligatures:normal;font-variant-caps:normal;font-variant-numeric:normal;font-variant-east-asian:normal;direction:rtl;fill:#88bef1;fill-opacity:1;stroke:#6aaeed;stroke-width:0.0350606;stroke-dasharray:none"
           x="113.98202"
           y="299.68585"
           id="text140"
           transform="scale(1.0643158,0.93957075)"><tspan
             id="tspan140"
             x="113.98202"
             y="299.68585"
             style="fill:#88bef1;fill-opacity:1;stroke:#6aaeed;stroke-width:0.0350606">&amp; Plumbing</tspan></text>
        <text
           xml:space="preserve"
           style="font-style:normal;font-variant:normal;font-weight:normal;font-stretch:normal;font-size:12.9245px;line-height:0;font-family:Impact;-inkscape-font-specification:'Impact, Normal';font-variant-ligatures:normal;font-variant-caps:normal;font-variant-numeric:normal;font-variant-east-asian:normal;direction:rtl;fill:#88bef1;fill-opacity:1;stroke:#6aaeed;stroke-width:0.0350606;stroke-dasharray:none"
           x="147.92155"
           y="313.83035"
           id="text141"
           transform="scale(1.0643158,0.93957075)"><tspan
             id="tspan141"
             x="147.92155"
             y="313.83035"
             style="fill:#88bef1;fill-opacity:1;stroke:#6aaeed;stroke-width:0.0350606">Climate Solutions</tspan></text>
      </g>
      <g
         style="display:inline;fill:none"
         id="g143"
         transform="matrix(0.08259246,0,0,0.08259246,18.150604,255.51801)">
        <path
           d="m 422.8364,520.5 c -5.52374,0 -10.00145,-7.611 -10.00145,-17 v -487 c 0,-9.3888395 4.47771,-16.9999995 10.00145,-16.9999995 5.52374,0 10.00145,7.61116 10.00145,16.9999995 v 487 c 0,9.389 -4.47771,17 -10.00145,17 z"
           fill="#6aaeed"
           id="path141"
           style="display:inline;fill:url(#linearGradient159);stroke-width:0.767021" />
        <g
           id="g142">
          <path
             id="path142"
             style="display:inline;fill:url(#linearGradient160);stroke-width:0.836662"
             d="m 232.95583,56.00129 c -15.45591,0 -10.32721,23.277194 1.82073,28.274469 l 4.1858,1.726876 c 0.30599,19.224295 0.55296,34.788725 0.79461,49.991815 -0.58835,-0.4995 -1.16761,-0.99361 -1.75816,-1.49538 -16.89833,-14.35791 -34.85461,-29.61331 -55.75432,-47.370211 -3.04877,-2.590489 -6.89465,-3.885472 -10.74292,-3.885472 -3.84831,0 -7.70044,1.294983 -10.74918,3.885472 L -6.0913838,228.88913 c -9.6107392,8.16576 -5.2294562,22.33838 6.07535068,25.46516 l -0.76958613,126.40609 c 5.64975915,0.75443 11.82047025,1.56142 17.78807625,2.35256 v 36.24563 c -6.063886,0.37325 -12.5998229,0.77565 -18.0258346,1.10745 l -0.2127311,34.6126 c -2.857e-4,0.0406 -0.012514,0.0782 -0.012514,0.11888 0,0.0365 0.012284,0.07 0.012514,0.10637 l -0.012514,1.73939 c -0.0098,1.61042 0.45101684,3.13943 1.27012997,4.54243 2.52702453,6.21898 8.60318743,10.61153 15.72958973,10.61153 H 324.74931 c 9.38898,0 16.99972,-7.61075 16.99972,-16.99972 l 0.80713,-152.02767 0.26279,-48.77174 c 11.44805,-3.01645 15.9352,-17.29635 6.26931,-25.50896 -11.88586,-10.09882 -19.5858,-16.63909 -29.91375,-25.41512 l 1.86452,-117.471375 4.1858,-1.726876 c 12.14795,-4.997275 16.27664,-28.274469 1.82073,-28.274469 h -30.04514 -25.00217 z" />
        </g>
      </g>
      <g
         id="g157"
         transform="matrix(0.15273241,0,0,0.15273241,20.689914,212.95013)"
         style="display:inline">
        <path
           d="m 53.335763,93.250122 -0.117306,20.345008 h -0.0052 z m 0,0 c -9.079254,-1.01e-4 -16.43947,7.047308 -16.439307,15.740638 v 47.22089 h 16.439307 v -41.71321 c 2.409884,-2.16811 4.913836,-2.56084 7.574214,0 v 41.71321 h 16.439307 v -41.71321 c 2.409884,-2.16811 4.913835,-2.56084 7.574215,0 v 44.50839 23.37997 c -1.07e-4,9.07899 7.359793,16.43913 16.438791,16.43931 v -21.24832 -9.62955 a 3.5169334,3.5169334 135 0 1 3.51693,-3.51693 h 5.04906 a 3.7712446,3.7712446 45 0 1 3.77124,3.77124 v 29.75333 0.59789 h 16.43879 v -0.59789 -53.85253 -4.57078 c 1.1e-4,-10.75528 -7.3598,-19.47456 -16.43879,-19.47478 v 5.89525 l 0,4.53817 0,13.73007 c 0,2.0828 -1.6135,4.28645 -3.6554,4.69359 -1.34707,0.26859 -3.60375,0.26934 -4.97035,2.3e-4 -2.07241,-0.4081 -3.71148,-2.74583 -3.71148,-4.99492 l 0,-10.85078 v -23.37997 c 1e-4,-9.07901 -7.35978,-16.439128 -16.438791,-16.439308 H 77.349284 60.909977 Z"
           style="display:inline;fill:#f9f9f9;stroke-width:0.258899"
           id="path143"
           transform="translate(1.3167608,287.73279)" />
        <path
           d="m 60.653708,442.65046 v 1.62885 a 1.0583333,1.0583333 0 0 0 1.058333,1.05833 h 17.468701 a 1.0583333,1.0583333 0 0 0 1.058333,-1.05833 v -1.62885 a 1.0583333,1.0583333 0 0 0 -1.058333,-1.05833 H 61.712041 a 1.0583333,1.0583333 0 0 0 -1.058333,1.05833 z"
           style="display:inline;mix-blend-mode:normal;fill:#f9f9f9;stroke:#555555;stroke-width:0.199382;stroke-opacity:0"
           id="path144" />
        <path
           d="m 36.640446,442.65046 v 1.62885 a 1.0583333,1.0583333 0 0 0 1.058333,1.05833 H 55.16748 a 1.0583333,1.0583333 0 0 0 1.058333,-1.05833 v -1.62885 A 1.0583333,1.0583333 0 0 0 55.16748,441.59213 H 37.698779 a 1.0583333,1.0583333 0 0 0 -1.058333,1.05833 z"
           style="display:inline;mix-blend-mode:normal;fill:#f9f9f9;stroke:#555555;stroke-width:0.199382;stroke-opacity:0"
           id="path145" />
        <path
           d="m 113.44273,484.87372 v 1.62937 a 1.0583333,1.0583333 0 0 0 1.05833,1.05833 h 17.46871 a 1.0583333,1.0583333 0 0 0 1.05833,-1.05833 v -1.62937 a 1.0583333,1.0583333 0 0 0 -1.05833,-1.05833 h -17.46871 a 1.0583333,1.0583333 0 0 0 -1.05833,1.05833 z"
           style="display:inline;mix-blend-mode:normal;fill:#f9f9f9;stroke:#555555;stroke-width:0.199382;stroke-opacity:0"
           id="path146" />
        <path
           d="m 99.716841,468.85308 v 17.4604 a 1.1666523,1.0577982 0 0 0 1.166649,1.05779 h 1.79556 a 1.1666523,1.0577982 0 0 0 1.16665,-1.05779 v -17.4604 a 1.1666523,1.0577982 0 0 0 -1.16665,-1.05779 h -1.79556 a 1.1666523,1.0577982 0 0 0 -1.166649,1.05779 z"
           style="display:inline;mix-blend-mode:normal;fill:#f9f9f9;stroke:#555555;stroke-width:0.209284;stroke-opacity:0"
           id="path147" />
        <path
           d="m 113.71939,407.87709 v 8.7302 8.7302 c 10e-6,0.5842 0.52233,1.05779 1.16665,1.05779 h 1.79556 c 0.64432,0 1.16665,-0.47359 1.16665,-1.05779 v -17.4604 c 0,-0.5842 -0.52233,-1.05779 -1.16665,-1.05779 h -1.79556 c -0.64432,0 -1.16664,0.47359 -1.16665,1.05779 z"
           style="display:inline;mix-blend-mode:normal;fill:#f9f9f9;stroke:#555555;stroke-width:0.209284;stroke-opacity:0"
           id="path148" />
        <path
           d="m 114.47574,457.17826 v 1.62885 a 1.0583333,1.0583333 0 0 0 1.05833,1.05833 h 15.40269 a 1.0583333,1.0583333 0 0 0 1.05833,-1.05833 v -1.62885 a 1.0583333,1.0583333 0 0 0 -1.05833,-1.05833 h -15.40269 a 1.0583333,1.0583333 0 0 0 -1.05833,1.05833 z"
           style="display:none;mix-blend-mode:normal;fill:#f9f9f9;stroke:#555555;stroke-width:0.188572;stroke-opacity:0"
           id="path149" />
        <path
           d="m 85.700241,457.17826 v 1.62885 a 1.0583333,1.0583333 0 0 0 1.058333,1.05833 h 15.402166 a 1.0583333,1.0583333 0 0 0 1.05833,-1.05833 v -1.62885 a 1.0583333,1.0583333 0 0 0 -1.05833,-1.05833 H 86.758574 a 1.0583333,1.0583333 0 0 0 -1.058333,1.05833 z"
           style="display:none;mix-blend-mode:normal;fill:#f9f9f9;stroke:#555555;stroke-width:0.188572;stroke-opacity:0"
           id="path150" />
        <path
           d="m 61.686719,420.20945 v 1.62885 a 1.0583333,1.0583333 0 0 0 1.058333,1.05833 h 15.402679 a 1.0583333,1.0583333 0 0 0 1.058333,-1.05833 v -1.62885 a 1.0583333,1.0583333 0 0 0 -1.058333,-1.05833 H 62.745052 a 1.0583333,1.0583333 0 0 0 -1.058333,1.05833 z"
           style="display:none;mix-blend-mode:normal;fill:#f9f9f9;stroke:#555555;stroke-width:0.188572;stroke-opacity:0"
           id="path151" />
        <path
           d="m 85.700241,404.72358 v 1.62885 a 1.0583333,1.0583333 0 0 0 1.058333,1.05833 h 15.402166 a 1.0583333,1.0583333 0 0 0 1.05833,-1.05833 v -1.62885 a 1.0583333,1.0583333 0 0 0 -1.05833,-1.05833 H 86.758574 a 1.0583333,1.0583333 0 0 0 -1.058333,1.05833 z"
           style="display:none;mix-blend-mode:normal;fill:#f9f9f9;stroke:#555555;stroke-width:0.188572;stroke-opacity:0"
           id="path152" />
        <path
           d="m 37.673715,404.72358 v 1.62885 a 1.0583333,1.0583333 0 0 0 1.058333,1.05833 h 15.402161 a 1.0583333,1.0583333 0 0 0 1.058333,-1.05833 v -1.62885 a 1.0583333,1.0583333 0 0 0 -1.058333,-1.05833 H 38.732048 a 1.0583333,1.0583333 0 0 0 -1.058333,1.05833 z"
           style="display:none;mix-blend-mode:normal;fill:#f9f9f9;stroke:#555555;stroke-width:0.188572;stroke-opacity:0"
           id="path153" />
        <path
           d="m 80.58014,382.33632 v 17.12092 a 1.5875,1.5875 0 0 0 1.5875,1.5875 h 0.571024 a 1.5875,1.5875 0 0 0 1.5875,-1.5875 v -17.12092 a 1.5875,1.5875 0 0 0 -1.5875,-1.5875 H 82.16764 a 1.5875,1.5875 0 0 0 -1.5875,1.5875 z"
           style="display:none;mix-blend-mode:normal;fill:#f9f9f9;stroke:#555555;stroke-width:0.202967;stroke-opacity:0"
           id="path154" />
        <path
           d="m 56.284465,381.80715 v 18.17926 a 1.0583333,1.0583333 0 0 0 1.058333,1.05833 h 1.628842 a 1.0583333,1.0583333 0 0 0 1.058333,-1.05833 v -18.17926 a 1.0583333,1.0583333 0 0 0 -1.058333,-1.05833 h -1.628842 a 1.0583333,1.0583333 0 0 0 -1.058333,1.05833 z"
           style="display:none;mix-blend-mode:normal;fill:#f9f9f9;stroke:#555555;stroke-width:0.202967;stroke-opacity:0"
           id="path155" />
        <path
           d="m 85.700241,419.98776 v 1.62885 a 1.0583333,1.0583333 0 0 0 1.058333,1.05833 h 2.925543 12.476623 a 1.0583333,1.0583333 0 0 0 1.05833,-1.05833 v -1.62885 a 1.0583333,1.0583333 0 0 0 -1.05833,-1.05833 H 86.758574 a 1.0583333,1.0583333 0 0 0 -1.058333,1.05833 z"
           style="display:none;mix-blend-mode:normal;fill:#f9f9f9;stroke:#555555;stroke-width:0.188572;stroke-opacity:0"
           id="path156" />
        <path
           d="m 114.47574,433.03813 v 1.62885 a 1.0583333,1.0583333 0 0 0 1.05833,1.05833 h 15.40269 a 1.0583333,1.0583333 0 0 0 1.05833,-1.05833 v -1.62885 a 1.0583333,1.0583333 0 0 0 -1.05833,-1.05833 h -15.40269 a 1.0583333,1.0583333 0 0 0 -1.05833,1.05833 z"
           style="display:none;mix-blend-mode:normal;fill:#f9f9f9;stroke:#555555;stroke-width:0.188572;stroke-opacity:0"
           id="path157" />
      </g>
      <path
         d="m 26.158708,283.84081 c -0.234015,0 -0.464303,0.01 -0.638819,0.0829 -0.138801,0.0582 -0.225235,0.14274 -0.294555,0.21084 -0.02966,0.0291 -0.07384,0.0731 -0.09353,0.0791 -0.04841,-8e-4 -0.151863,-0.0273 -0.227893,-0.047 -0.03469,-0.009 -0.06871,-0.0173 -0.100769,-0.0253 -0.09894,-0.0235 -0.205711,-0.0549 -0.318327,-0.0879 -0.27451,-0.0801 -0.585425,-0.17105 -0.877465,-0.17105 -0.04373,0 -0.08663,0.002 -0.127641,0.006 -0.426605,0.0418 -0.756348,0.35847 -0.766878,0.73691 -0.01342,0.48348 0.388017,0.74502 0.766361,0.78342 0.04631,0.005 0.09396,0.007 0.14211,0.007 0.233906,0 0.452765,-0.0557 0.645956,-0.1049 0.05614,-0.0143 0.109597,-0.0278 0.161747,-0.0398 0.198446,-0.0455 0.383174,-0.0822 0.579293,-0.12093 0.04861,-0.01 0.09736,-0.0189 0.146244,-0.0289 0.03846,0.0297 0.07734,0.0581 0.115238,0.0863 0.04813,0.0358 0.09416,0.0705 0.138493,0.10542 v 0.51573 H 25.10131 c -0.09512,0 -0.176526,0.0588 -0.193786,0.14005 -0.04017,0.18892 -0.07922,1.29158 -0.179834,1.43299 l -5.17e-4,5.1e-4 c -0.05476,0.0574 -2.835486,0.0594 -2.835486,0.0594 -0.118325,0 -3.807003,-0.29817 -3.807003,-0.29817 0,0 -0.01499,2.71983 -0.02119,2.96674 0.158749,0.009 6.392742,-0.29162 6.586678,-0.27802 0.227887,0.016 0.448307,0.0897 0.681612,0.16795 0.269256,0.0902 0.54769,0.18345 0.84646,0.18345 h 0.0062 c 0.316444,-0.001 0.60631,-0.0982 0.886768,-0.19172 0.22585,-0.0753 0.439113,-0.14618 0.643888,-0.15968 0.283985,-0.0187 1.568402,0.0705 1.580782,0.0806 0.07303,0.11374 -0.0023,1.06049 0.05219,1.22473 0.02153,0.0648 0.07948,0.11526 0.153996,0.13436 0.328301,0.0839 0.757,0.13022 1.206645,0.13022 0.498705,0 0.977197,-0.054 1.347721,-0.15244 0.09552,-0.0254 0.160714,-0.10234 0.160714,-0.18914 0,0 0.06299,-2.63692 -0.03411,-2.92747 -0.09807,-0.29354 -0.334891,-0.49397 -0.703834,-0.59635 -0.307296,-0.0852 -0.685592,-0.0971 -1.048514,-0.0971 -0.09123,0 -0.183853,10e-4 -0.277503,0.002 -0.09396,8e-4 -2.433601,-0.004 -2.511991,-0.0109 -0.137655,-0.0114 -0.272491,-1.27937 -0.306441,-1.47485 -0.01342,-0.0772 -0.0852,-0.13721 -0.174667,-0.14521 -0.02697,-0.003 -0.05662,-0.004 -0.08992,-0.004 -0.03876,0 -0.07721,5.9e-4 -0.114721,0.003 -0.01964,10e-4 -0.03867,0.002 -0.05684,0.002 v -0.50282 c 0.08647,-0.0492 0.143345,-0.11418 0.189135,-0.16588 0.04122,-0.0466 0.06815,-0.0751 0.08992,-0.0791 0,5e-5 0.0014,0 0.0041,0 0.05184,0 0.151763,0.0274 0.224793,0.0475 0.03446,0.01 0.06702,0.0183 0.09715,0.0253 0.08903,0.0211 0.18988,0.0525 0.296622,0.0853 0.269002,0.0828 0.574389,0.17673 0.886251,0.17673 0.05725,0 0.113075,-0.004 0.166915,-0.0103 0.266783,-0.0317 0.51635,-0.17926 0.650606,-0.38499 0.135835,-0.20812 0.146188,-0.45289 0.02997,-0.68937 -0.105269,-0.21431 -0.428913,-0.41815 -0.706934,-0.44545 -0.0523,-0.005 -0.106304,-0.008 -0.160714,-0.008 -0.310134,0 -0.606718,0.083 -0.893485,0.1633 -0.211466,0.0592 -0.412538,0.11556 -0.615983,0.14056 -0.02297,-0.0183 -0.04633,-0.0378 -0.07028,-0.0584 -0.08061,-0.0692 -0.172064,-0.14796 -0.298173,-0.20206 -0.176661,-0.0758 -0.396923,-0.0832 -0.629792,-0.0832 z"
         style="fill:#f9f9f9;stroke-width:0.016947"
         id="path158" />
    </g>
  </g>
</svg>
